<svg width="29" height="27" viewBox="0 0 29 27" fill="none" xmlns="http://www.w3.org/2000/svg">
<path d="M25.6153 18.5112H9.08705L9.91693 16.9051L23.7057 16.8814C24.172 16.8814 24.5717 16.5649 24.6549 16.1271L26.5645 5.97083C26.6145 5.70446 26.5395 5.43018 26.3563 5.22184C26.2658 5.1193 26.1529 5.0367 26.0254 4.97978C25.8979 4.92285 25.7589 4.89296 25.618 4.89217L8.07676 4.83679L7.92688 4.16691C7.83251 3.73967 7.42728 3.42847 6.96655 3.42847H2.67837C2.41852 3.42847 2.16931 3.52655 1.98557 3.70114C1.80183 3.87573 1.69861 4.11253 1.69861 4.35944C1.69861 4.60634 1.80183 4.84314 1.98557 5.01773C2.16931 5.19232 2.41852 5.29041 2.67837 5.29041H6.17275L6.82777 8.24946L8.44035 15.6682L6.36426 18.8884C6.25645 19.0266 6.19151 19.1908 6.17679 19.3623C6.16208 19.5338 6.19817 19.7059 6.28099 19.8589C6.44753 20.1727 6.78336 20.3705 7.15528 20.3705H8.89831C8.52672 20.8395 8.32601 21.4107 8.32655 21.9977C8.32655 23.4905 9.60329 24.7036 11.1742 24.7036C12.7452 24.7036 14.0219 23.4905 14.0219 21.9977C14.0219 21.4096 13.8165 20.8373 13.4502 20.3705H17.9215C17.5499 20.8395 17.3492 21.4107 17.3498 21.9977C17.3498 23.4905 18.6265 24.7036 20.1975 24.7036C21.7684 24.7036 23.0451 23.4905 23.0451 21.9977C23.0451 21.4096 22.8398 20.8373 22.4734 20.3705H25.618C26.1565 20.3705 26.5978 19.9538 26.5978 19.4396C26.5962 19.1929 26.492 18.9569 26.3079 18.783C26.1238 18.609 25.8749 18.5114 25.6153 18.5112ZM8.48476 6.67235L24.4662 6.72246L22.9008 15.0511L10.3471 15.0722L8.48476 6.67235ZM11.1742 22.8311C10.6913 22.8311 10.2972 22.4566 10.2972 21.9977C10.2972 21.5389 10.6913 21.1644 11.1742 21.1644C11.6572 21.1644 12.0513 21.5389 12.0513 21.9977C12.0513 22.2188 11.9589 22.4307 11.7944 22.587C11.6299 22.7433 11.4068 22.8311 11.1742 22.8311ZM20.1975 22.8311C19.7145 22.8311 19.3204 22.4566 19.3204 21.9977C19.3204 21.5389 19.7145 21.1644 20.1975 21.1644C20.6804 21.1644 21.0745 21.5389 21.0745 21.9977C21.0745 22.2188 20.9821 22.4307 20.8176 22.587C20.6532 22.7433 20.4301 22.8311 20.1975 22.8311Z" fill="black"/>
</svg>
