<svg width="29" height="27" viewBox="0 0 29 27" fill="none" xmlns="http://www.w3.org/2000/svg">
<path d="M23.6844 13.503V7.87673H26.0529V14.6282H23.6844M23.6844 19.1292H26.0529V16.8787H23.6844M11.8422 14.6282C15.0041 14.6282 21.316 16.1361 21.316 19.1292V22.505H2.36844V19.1292C2.36844 16.1361 8.68035 14.6282 11.8422 14.6282ZM11.8422 4.50098C13.0985 4.50098 14.3034 4.97519 15.1917 5.81929C16.08 6.66339 16.5791 7.80824 16.5791 9.00198C16.5791 10.1957 16.08 11.3406 15.1917 12.1847C14.3034 13.0288 13.0985 13.503 11.8422 13.503C10.5859 13.503 9.38107 13.0288 8.49273 12.1847C7.60439 11.3406 7.10533 10.1957 7.10533 9.00198C7.10533 7.80824 7.60439 6.66339 8.49273 5.81929C9.38107 4.97519 10.5859 4.50098 11.8422 4.50098ZM11.8422 16.7662C8.32508 16.7662 4.61846 18.4091 4.61846 19.1292V20.367H19.066V19.1292C19.066 18.4091 15.3594 16.7662 11.8422 16.7662ZM11.8422 6.63895C11.1827 6.63895 10.5501 6.88791 10.0837 7.33107C9.61736 7.77422 9.35535 8.37527 9.35535 9.00198C9.35535 9.62869 9.61736 10.2297 10.0837 10.6729C10.5501 11.116 11.1827 11.365 11.8422 11.365C12.5018 11.365 13.1343 11.116 13.6007 10.6729C14.0671 10.2297 14.3291 9.62869 14.3291 9.00198C14.3291 8.37527 14.0671 7.77422 13.6007 7.33107C13.1343 6.88791 12.5018 6.63895 11.8422 6.63895Z" fill="black"/>
</svg>
